<svg width="139" height="79" viewBox="0 0 139 79" fill="none" xmlns="http://www.w3.org/2000/svg">
<path fill-rule="evenodd" clip-rule="evenodd" d="M12.8036 43.937C11.6491 41.8753 11.0718 39.4424 11.0718 36.6383C11.0718 34.0817 11.5872 31.8344 12.6181 29.8963C13.6902 27.917 15.1541 26.3707 17.0097 25.2573C18.8653 24.144 21.0301 23.5873 23.5043 23.5873C26.2671 23.5873 28.6175 24.247 30.5556 25.5666C32.5349 26.8449 34.04 28.5562 35.0709 30.7004C36.143 32.8447 36.6791 35.2157 36.6791 37.8135C36.6791 40.3289 35.6945 43.3018 34.6224 45.2398L27.2068 39.5028C27.6158 38.9435 27.8572 38.254 27.8572 37.5082C27.8572 35.64 26.3428 34.1255 24.4746 34.1255C22.6064 34.1255 21.092 35.64 21.092 37.5082C21.092 39.3763 22.6064 40.8908 24.4746 40.8908C25.1522 40.8908 25.7833 40.6915 26.3125 40.3484L32.1386 48.0457C31.7288 48.3232 31.2699 48.5915 30.7411 48.8853C28.8855 49.9162 26.7207 50.4316 24.2465 50.4316C21.8136 50.4316 19.5869 49.875 17.5664 48.7616C15.5871 47.607 13.9995 45.9988 12.8036 43.937ZM37.6305 55.3014C36.1656 56.3685 34.5495 57.2606 32.7823 57.9778C29.9783 59.0911 26.8856 59.6478 23.5043 59.6478C20.0817 59.6478 16.9478 59.0911 14.1026 57.9778C11.2573 56.8232 8.76256 55.215 6.61831 53.1532C4.5153 51.0914 2.88649 48.6585 1.73189 45.8545C0.577298 43.0505 0 39.9784 0 36.6383C0 33.2983 0.597916 30.2468 1.79375 27.484C2.98958 24.7213 4.65962 22.3296 6.80387 20.309C8.94812 18.2885 11.4429 16.7422 14.2881 15.67C17.1334 14.5567 20.2054 14 23.5043 14C26.8444 14 29.9164 14.5567 32.7204 15.67C35.5245 16.7422 37.9574 18.2885 40.0191 20.309C42.1222 22.3296 43.7303 24.7213 44.8437 27.484C45.9983 30.2468 46.5756 33.2983 46.5756 36.6383C46.5756 39.9784 46.0189 43.0505 44.9056 45.8545C44.1349 47.7954 43.137 49.5586 41.9119 51.1439L51.6476 59.0293H40.4521L37.6305 55.3014ZM61.0918 51.0502C60.4733 50.1018 60.164 48.8028 60.164 47.1534V29.8345H50.3912V48.1431C50.3912 51.5244 51.1953 54.1841 52.8034 56.1221C54.4529 58.019 57.0507 58.9674 60.597 58.9674C62.7 58.9674 64.4525 58.5344 65.8545 57.6685C67.2565 56.7613 68.3905 55.5448 69.2564 54.0191V58.287H78.5963V29.8345H69.2564V47.1534C69.2564 48.2668 69.0503 49.2152 68.6379 49.9987C68.2256 50.7821 67.6483 51.3801 66.906 51.7924C66.205 52.2048 65.3391 52.4109 64.3082 52.4109C62.7825 52.4109 61.7103 51.9574 61.0918 51.0502ZM92.6283 14.9897H108.896V23.9584H92.6283V32.4942H108.277V40.9062H92.6283V58.287H82.6081V25.0099C82.6081 19.4759 87.0943 14.9897 92.6283 14.9897ZM121.495 51.0502C120.877 50.1018 120.568 48.8028 120.568 47.1534V29.8345H110.795V48.1431C110.795 51.5244 111.599 54.1841 113.207 56.1221C114.857 58.019 117.454 58.9674 121.001 58.9674C123.104 58.9674 124.856 58.5344 126.258 57.6685C127.66 56.7613 128.794 55.5448 129.66 54.0191V58.287H139V29.8345H129.66V47.1534C129.66 48.2668 129.454 49.2152 129.042 49.9987C128.629 50.7821 128.052 51.3801 127.31 51.7924C126.609 52.2048 125.743 52.4109 124.712 52.4109C123.186 52.4109 122.114 51.9574 121.495 51.0502Z" fill="#FFF2EB"/>
<path d="M17.1562 73.8359L19.6875 75.7188L18.7109 76.5781L16.25 74.7031L17.1562 73.8359ZM19.6719 70.1953V70.7109C19.6719 71.3984 19.5781 72.0156 19.3906 72.5625C19.2031 73.1042 18.9349 73.5677 18.5859 73.9531C18.237 74.3333 17.8177 74.625 17.3281 74.8281C16.8438 75.026 16.2995 75.125 15.6953 75.125C15.1068 75.125 14.5677 75.026 14.0781 74.8281C13.5938 74.625 13.1719 74.3333 12.8125 73.9531C12.4583 73.5677 12.1849 73.1042 11.9922 72.5625C11.7995 72.0156 11.7031 71.3984 11.7031 70.7109V70.1953C11.7031 69.5078 11.7995 68.8932 11.9922 68.3516C12.1849 67.8047 12.4557 67.3385 12.8047 66.9531C13.1589 66.5677 13.5781 66.276 14.0625 66.0781C14.5521 65.875 15.0911 65.7734 15.6797 65.7734C16.2839 65.7734 16.8307 65.875 17.3203 66.0781C17.8099 66.276 18.2292 66.5677 18.5781 66.9531C18.9271 67.3385 19.1953 67.8047 19.3828 68.3516C19.5755 68.8932 19.6719 69.5078 19.6719 70.1953ZM18.2344 70.7109V70.1797C18.2344 69.6641 18.1771 69.2083 18.0625 68.8125C17.9479 68.4167 17.7812 68.0833 17.5625 67.8125C17.3438 67.5417 17.0755 67.3359 16.7578 67.1953C16.4401 67.0547 16.0807 66.9844 15.6797 66.9844C15.2891 66.9844 14.9375 67.0547 14.625 67.1953C14.3125 67.3359 14.0443 67.5417 13.8203 67.8125C13.6016 68.0833 13.4323 68.4167 13.3125 68.8125C13.1979 69.2083 13.1406 69.6641 13.1406 70.1797V70.7109C13.1406 71.2266 13.2005 71.6849 13.3203 72.0859C13.4401 72.4818 13.612 72.8177 13.8359 73.0938C14.0599 73.3646 14.3281 73.5703 14.6406 73.7109C14.9531 73.8516 15.3047 73.9219 15.6953 73.9219C16.0964 73.9219 16.4531 73.8516 16.7656 73.7109C17.0833 73.5703 17.3516 73.3646 17.5703 73.0938C17.7891 72.8177 17.9531 72.4818 18.0625 72.0859C18.1771 71.6849 18.2344 71.2266 18.2344 70.7109ZM27.1016 65.8984H28.5547V71.9922C28.5547 72.6797 28.3906 73.2578 28.0625 73.7266C27.7396 74.1901 27.3047 74.5391 26.7578 74.7734C26.2161 75.0078 25.6172 75.125 24.9609 75.125C24.2786 75.125 23.6667 75.0078 23.125 74.7734C22.5885 74.5391 22.1641 74.1901 21.8516 73.7266C21.5391 73.2578 21.3828 72.6797 21.3828 71.9922V65.8984H22.8125V71.9922C22.8125 72.4401 22.901 72.8099 23.0781 73.1016C23.2604 73.388 23.513 73.6016 23.8359 73.7422C24.1589 73.8776 24.5339 73.9453 24.9609 73.9453C25.3932 73.9453 25.7682 73.8776 26.0859 73.7422C26.4089 73.6016 26.6589 73.388 26.8359 73.1016C27.013 72.8099 27.1016 72.4401 27.1016 71.9922V65.8984ZM32.0859 65.8984V75H30.6406V65.8984H32.0859ZM40.2109 72.0547H41.6641C41.6016 72.6432 41.4219 73.1693 41.125 73.6328C40.8333 74.0964 40.4193 74.4609 39.8828 74.7266C39.3516 74.9922 38.6927 75.125 37.9062 75.125C37.3177 75.125 36.7865 75.026 36.3125 74.8281C35.8385 74.625 35.4323 74.3385 35.0938 73.9688C34.7552 73.5938 34.4948 73.1432 34.3125 72.6172C34.1302 72.0911 34.0391 71.5026 34.0391 70.8516V70.0547C34.0391 69.4036 34.1302 68.8151 34.3125 68.2891C34.4948 67.763 34.7578 67.3125 35.1016 66.9375C35.4453 66.5625 35.8594 66.276 36.3438 66.0781C36.8333 65.875 37.3802 65.7734 37.9844 65.7734C38.7448 65.7734 39.3854 65.9062 39.9062 66.1719C40.4271 66.4323 40.8333 66.7969 41.125 67.2656C41.4219 67.7344 41.6016 68.2734 41.6641 68.8828H40.2109C40.1589 68.4818 40.0521 68.138 39.8906 67.8516C39.7292 67.5651 39.4948 67.3464 39.1875 67.1953C38.8802 67.0391 38.4792 66.9609 37.9844 66.9609C37.5729 66.9609 37.2109 67.0312 36.8984 67.1719C36.5859 67.3073 36.3229 67.5104 36.1094 67.7812C35.901 68.0469 35.7422 68.3698 35.6328 68.75C35.5286 69.1302 35.4766 69.5625 35.4766 70.0469V70.8516C35.4766 71.3099 35.5234 71.7292 35.6172 72.1094C35.7161 72.4844 35.8646 72.8099 36.0625 73.0859C36.2604 73.362 36.513 73.5755 36.8203 73.7266C37.1276 73.8724 37.4896 73.9453 37.9062 73.9453C38.4271 73.9453 38.8438 73.8724 39.1562 73.7266C39.4688 73.5807 39.7057 73.3672 39.8672 73.0859C40.0339 72.7995 40.1484 72.4557 40.2109 72.0547ZM44.7812 65.8984V75H43.3359V65.8984H44.7812ZM50.6719 65.8984L46.6484 70.25L44.3984 72.4219L44.1172 70.9531L45.7969 69.1094L48.8906 65.8984H50.6719ZM49.1719 75L45.7109 70.6562L46.6719 69.625L50.9297 75H49.1719ZM57.4219 65.8984V75H55.9766V65.8984H57.4219ZM61.4844 69.9062V71.0938H57.0781V69.9062H61.4844ZM62.1016 65.8984V67.0938H57.0781V65.8984H62.1016ZM71.1953 70.1953V70.7109C71.1953 71.3984 71.1016 72.0156 70.9141 72.5625C70.7266 73.1042 70.4583 73.5677 70.1094 73.9531C69.7604 74.3333 69.3411 74.625 68.8516 74.8281C68.3672 75.026 67.8255 75.125 67.2266 75.125C66.638 75.125 66.099 75.026 65.6094 74.8281C65.125 74.625 64.7031 74.3333 64.3438 73.9531C63.9896 73.5677 63.7161 73.1042 63.5234 72.5625C63.3307 72.0156 63.2344 71.3984 63.2344 70.7109V70.1953C63.2344 69.5078 63.3307 68.8932 63.5234 68.3516C63.7161 67.8047 63.987 67.3385 64.3359 66.9531C64.6901 66.5677 65.1094 66.276 65.5938 66.0781C66.0833 65.875 66.6224 65.7734 67.2109 65.7734C67.8151 65.7734 68.3594 65.875 68.8438 66.0781C69.3333 66.276 69.7526 66.5677 70.1016 66.9531C70.4557 67.3385 70.7266 67.8047 70.9141 68.3516C71.1016 68.8932 71.1953 69.5078 71.1953 70.1953ZM69.7656 70.7109V70.1797C69.7656 69.6641 69.7083 69.2083 69.5938 68.8125C69.4792 68.4167 69.3125 68.0833 69.0938 67.8125C68.875 67.5417 68.6068 67.3359 68.2891 67.1953C67.9714 67.0547 67.612 66.9844 67.2109 66.9844C66.8255 66.9844 66.4766 67.0547 66.1641 67.1953C65.8516 67.3359 65.5833 67.5417 65.3594 67.8125C65.1406 68.0833 64.9714 68.4167 64.8516 68.8125C64.7318 69.2083 64.6719 69.6641 64.6719 70.1797V70.7109C64.6719 71.2266 64.7318 71.6849 64.8516 72.0859C64.9714 72.4818 65.1432 72.8177 65.3672 73.0938C65.5911 73.3646 65.8594 73.5703 66.1719 73.7109C66.4896 73.8516 66.8411 73.9219 67.2266 73.9219C67.6328 73.9219 67.9922 73.8516 68.3047 73.7109C68.6172 73.5703 68.8828 73.3646 69.1016 73.0938C69.3203 72.8177 69.4844 72.4818 69.5938 72.0859C69.7083 71.6849 69.7656 71.2266 69.7656 70.7109ZM80.6641 70.1953V70.7109C80.6641 71.3984 80.5703 72.0156 80.3828 72.5625C80.1953 73.1042 79.9271 73.5677 79.5781 73.9531C79.2292 74.3333 78.8099 74.625 78.3203 74.8281C77.8359 75.026 77.2943 75.125 76.6953 75.125C76.1068 75.125 75.5677 75.026 75.0781 74.8281C74.5938 74.625 74.1719 74.3333 73.8125 73.9531C73.4583 73.5677 73.1849 73.1042 72.9922 72.5625C72.7995 72.0156 72.7031 71.3984 72.7031 70.7109V70.1953C72.7031 69.5078 72.7995 68.8932 72.9922 68.3516C73.1849 67.8047 73.4557 67.3385 73.8047 66.9531C74.1589 66.5677 74.5781 66.276 75.0625 66.0781C75.5521 65.875 76.0911 65.7734 76.6797 65.7734C77.2839 65.7734 77.8281 65.875 78.3125 66.0781C78.8021 66.276 79.2214 66.5677 79.5703 66.9531C79.9245 67.3385 80.1953 67.8047 80.3828 68.3516C80.5703 68.8932 80.6641 69.5078 80.6641 70.1953ZM79.2344 70.7109V70.1797C79.2344 69.6641 79.1771 69.2083 79.0625 68.8125C78.9479 68.4167 78.7812 68.0833 78.5625 67.8125C78.3438 67.5417 78.0755 67.3359 77.7578 67.1953C77.4401 67.0547 77.0807 66.9844 76.6797 66.9844C76.2943 66.9844 75.9453 67.0547 75.6328 67.1953C75.3203 67.3359 75.0521 67.5417 74.8281 67.8125C74.6094 68.0833 74.4401 68.4167 74.3203 68.8125C74.2005 69.2083 74.1406 69.6641 74.1406 70.1797V70.7109C74.1406 71.2266 74.2005 71.6849 74.3203 72.0859C74.4401 72.4818 74.612 72.8177 74.8359 73.0938C75.0599 73.3646 75.3281 73.5703 75.6406 73.7109C75.9583 73.8516 76.3099 73.9219 76.6953 73.9219C77.1016 73.9219 77.4609 73.8516 77.7734 73.7109C78.0859 73.5703 78.3516 73.3646 78.5703 73.0938C78.7891 72.8177 78.9531 72.4818 79.0625 72.0859C79.1771 71.6849 79.2344 71.2266 79.2344 70.7109ZM85.2266 75H83.1641L83.1719 73.8125H85.2266C85.8984 73.8125 86.4557 73.6875 86.8984 73.4375C87.3464 73.1875 87.6797 72.8307 87.8984 72.3672C88.1172 71.8984 88.2266 71.3438 88.2266 70.7031V70.1875C88.2266 69.6927 88.1641 69.2526 88.0391 68.8672C87.9141 68.4818 87.7292 68.1589 87.4844 67.8984C87.2396 67.6328 86.9349 67.4323 86.5703 67.2969C86.2109 67.1615 85.7943 67.0938 85.3203 67.0938H83.1172V65.8984H85.3203C85.9661 65.8984 86.5547 66 87.0859 66.2031C87.6224 66.401 88.0833 66.6901 88.4688 67.0703C88.8542 67.4453 89.151 67.8984 89.3594 68.4297C89.5677 68.9557 89.6719 69.5469 89.6719 70.2031V70.7031C89.6719 71.5729 89.487 72.3307 89.1172 72.9766C88.7526 73.6224 88.237 74.1224 87.5703 74.4766C86.9089 74.8255 86.1276 75 85.2266 75ZM83.9531 65.8984V75H82.5078V65.8984H83.9531ZM97.0234 65.8984V75H95.5781V65.8984H97.0234ZM102.023 75H99.9609L99.9688 73.8125H102.023C102.695 73.8125 103.253 73.6875 103.695 73.4375C104.143 73.1875 104.477 72.8307 104.695 72.3672C104.914 71.8984 105.023 71.3438 105.023 70.7031V70.1875C105.023 69.6927 104.961 69.2526 104.836 68.8672C104.711 68.4818 104.526 68.1589 104.281 67.8984C104.036 67.6328 103.732 67.4323 103.367 67.2969C103.008 67.1615 102.591 67.0938 102.117 67.0938H99.9141V65.8984H102.117C102.763 65.8984 103.352 66 103.883 66.2031C104.419 66.401 104.88 66.6901 105.266 67.0703C105.651 67.4453 105.948 67.8984 106.156 68.4297C106.365 68.9557 106.469 69.5469 106.469 70.2031V70.7031C106.469 71.5729 106.284 72.3307 105.914 72.9766C105.549 73.6224 105.034 74.1224 104.367 74.4766C103.706 74.8255 102.924 75 102.023 75ZM100.75 65.8984V75H99.3047V65.8984H100.75ZM114.586 73.8125V75H109.398V73.8125H114.586ZM109.75 65.8984V75H108.305V65.8984H109.75ZM113.906 69.7031V70.8828H109.398V69.7031H113.906ZM114.539 65.8984V67.0938H109.398V65.8984H114.539ZM119.75 67.1719L116.648 75H115.172L118.914 65.8984H119.859L119.75 67.1719ZM122.43 75L119.352 67.1406L119.25 65.8984H120.203L123.898 75H122.43ZM122.219 71.6328V72.8203H116.812V71.6328H122.219ZM130.336 72.6719C130.336 72.4792 130.302 72.3073 130.234 72.1562C130.172 72 130.062 71.8594 129.906 71.7344C129.75 71.6042 129.534 71.4844 129.258 71.375C128.982 71.2656 128.633 71.1615 128.211 71.0625C127.706 70.9375 127.25 70.7943 126.844 70.6328C126.438 70.4661 126.089 70.2734 125.797 70.0547C125.51 69.8307 125.289 69.5729 125.133 69.2812C124.982 68.9896 124.906 68.6536 124.906 68.2734C124.906 67.9089 124.987 67.5755 125.148 67.2734C125.31 66.9661 125.539 66.7005 125.836 66.4766C126.133 66.2526 126.49 66.0807 126.906 65.9609C127.323 65.8359 127.786 65.7734 128.297 65.7734C129.026 65.7734 129.648 65.901 130.164 66.1562C130.685 66.4062 131.083 66.7422 131.359 67.1641C131.635 67.5807 131.773 68.0417 131.773 68.5469H130.32C130.32 68.2396 130.245 67.9661 130.094 67.7266C129.948 67.487 129.724 67.2995 129.422 67.1641C129.125 67.0234 128.745 66.9531 128.281 66.9531C127.849 66.9531 127.49 67.0104 127.203 67.125C126.917 67.2396 126.703 67.3958 126.562 67.5938C126.422 67.7917 126.352 68.0156 126.352 68.2656C126.352 68.4427 126.393 68.6042 126.477 68.75C126.56 68.8958 126.693 69.0286 126.875 69.1484C127.057 69.2682 127.294 69.3828 127.586 69.4922C127.878 69.6016 128.232 69.7083 128.648 69.8125C129.154 69.9375 129.602 70.0859 129.992 70.2578C130.383 70.4297 130.711 70.6302 130.977 70.8594C131.247 71.0885 131.451 71.3516 131.586 71.6484C131.727 71.9453 131.797 72.2812 131.797 72.6562C131.797 73.0365 131.714 73.3802 131.547 73.6875C131.385 73.9896 131.151 74.2474 130.844 74.4609C130.542 74.6745 130.177 74.8385 129.75 74.9531C129.328 75.0677 128.859 75.125 128.344 75.125C127.885 75.125 127.432 75.0677 126.984 74.9531C126.542 74.8333 126.138 74.6562 125.773 74.4219C125.414 74.1823 125.128 73.8854 124.914 73.5312C124.701 73.1719 124.594 72.7526 124.594 72.2734H126.047C126.047 72.5755 126.107 72.8333 126.227 73.0469C126.346 73.2604 126.513 73.4349 126.727 73.5703C126.94 73.7005 127.185 73.7969 127.461 73.8594C127.737 73.9219 128.031 73.9531 128.344 73.9531C128.776 73.9531 129.141 73.901 129.438 73.7969C129.734 73.6875 129.958 73.5365 130.109 73.3438C130.26 73.151 130.336 72.9271 130.336 72.6719Z" fill="#FFF2EB"/>
<path d="M65.125 1.11847C65.125 0.00284234 63.6883 -0.417626 63.0555 0.507217C57.25 8.993 65.5 9.37503 65.5 13.5C65.5 15.1702 64.1355 16.5216 62.4602 16.4996C60.8116 16.4785 59.5 15.1041 59.5 13.4555V9.44722C59.5 8.43003 58.2592 7.93644 57.558 8.67378C56.3031 9.99191 55 12.2499 55 15C55 19.9627 59.0373 24 64 24C68.9627 24 73 19.9627 73 15C73 7.01769 65.125 5.95315 65.125 1.11847Z" fill="#FFF2EB"/>
</svg>
