<svg width="139" height="65" viewBox="0 0 139 65" fill="none" xmlns="http://www.w3.org/2000/svg">
<path fill-rule="evenodd" clip-rule="evenodd" d="M12.8036 29.937C11.6491 27.8753 11.0718 25.4424 11.0718 22.6383C11.0718 20.0817 11.5872 17.8344 12.6181 15.8963C13.6902 13.917 15.1541 12.3707 17.0097 11.2573C18.8653 10.144 21.0301 9.58727 23.5043 9.58727C26.2671 9.58727 28.6175 10.247 30.5556 11.5666C32.5349 12.8449 34.04 14.5562 35.0709 16.7004C36.143 18.8447 36.6791 21.2157 36.6791 23.8135C36.6791 26.3289 35.6945 29.3018 34.6224 31.2398L27.2068 25.5028C27.6158 24.9435 27.8572 24.254 27.8572 23.5082C27.8572 21.64 26.3428 20.1255 24.4746 20.1255C22.6064 20.1255 21.092 21.64 21.092 23.5082C21.092 25.3763 22.6064 26.8908 24.4746 26.8908C25.1522 26.8908 25.7833 26.6915 26.3125 26.3484L32.1386 34.0457C31.7288 34.3232 31.2699 34.5915 30.7411 34.8853C28.8855 35.9162 26.7207 36.4316 24.2465 36.4316C21.8136 36.4316 19.5869 35.875 17.5664 34.7616C15.5871 33.607 13.9995 31.9988 12.8036 29.937ZM37.6305 41.3014C36.1656 42.3685 34.5495 43.2606 32.7823 43.9778C29.9783 45.0911 26.8856 45.6478 23.5043 45.6478C20.0817 45.6478 16.9478 45.0911 14.1026 43.9778C11.2573 42.8232 8.76256 41.215 6.61831 39.1532C4.5153 37.0914 2.88649 34.6585 1.73189 31.8545C0.577298 29.0505 0 25.9784 0 22.6383C0 19.2983 0.597916 16.2468 1.79375 13.484C2.98958 10.7213 4.65962 8.32959 6.80387 6.30904C8.94812 4.2885 11.4429 2.74217 14.2881 1.67004C17.1334 0.556681 20.2054 0 23.5043 0C26.8444 0 29.9164 0.556681 32.7204 1.67004C35.5245 2.74217 37.9574 4.2885 40.0191 6.30904C42.1222 8.32959 43.7303 10.7213 44.8437 13.484C45.9983 16.2468 46.5756 19.2983 46.5756 22.6383C46.5756 25.9784 46.0189 29.0505 44.9056 31.8545C44.1349 33.7954 43.137 35.5586 41.9119 37.1439L51.6476 45.0293H40.4521L37.6305 41.3014ZM61.0918 37.0502C60.4733 36.1018 60.164 34.8028 60.164 33.1534V15.8345H50.3912V34.1431C50.3912 37.5244 51.1953 40.1841 52.8034 42.1221C54.4529 44.019 57.0507 44.9674 60.597 44.9674C62.7 44.9674 64.4525 44.5344 65.8545 43.6685C67.2565 42.7613 68.3905 41.5448 69.2564 40.0191V44.287H78.5963V15.8345H69.2564V33.1534C69.2564 34.2668 69.0503 35.2152 68.6379 35.9987C68.2256 36.7821 67.6483 37.3801 66.906 37.7924C66.205 38.2048 65.3391 38.4109 64.3082 38.4109C62.7825 38.4109 61.7103 37.9574 61.0918 37.0502ZM92.6283 0.989652H108.896V9.95839H92.6283V18.4942H108.277V26.9062H92.6283V44.287H82.6081V11.0099C82.6081 5.47587 87.0943 0.989652 92.6283 0.989652ZM121.495 37.0502C120.877 36.1018 120.568 34.8028 120.568 33.1534V15.8345H110.795V34.1431C110.795 37.5244 111.599 40.1841 113.207 42.1221C114.857 44.019 117.454 44.9674 121.001 44.9674C123.104 44.9674 124.856 44.5344 126.258 43.6685C127.66 42.7613 128.794 41.5448 129.66 40.0191V44.287H139V15.8345H129.66V33.1534C129.66 34.2668 129.454 35.2152 129.042 35.9987C128.629 36.7821 128.052 37.3801 127.31 37.7924C126.609 38.2048 125.743 38.4109 124.712 38.4109C123.186 38.4109 122.114 37.9574 121.495 37.0502Z" fill="#E56B6F"/>
<path d="M17.1562 59.8359L19.6875 61.7188L18.7109 62.5781L16.25 60.7031L17.1562 59.8359ZM19.6719 56.1953V56.7109C19.6719 57.3984 19.5781 58.0156 19.3906 58.5625C19.2031 59.1042 18.9349 59.5677 18.5859 59.9531C18.237 60.3333 17.8177 60.625 17.3281 60.8281C16.8438 61.026 16.2995 61.125 15.6953 61.125C15.1068 61.125 14.5677 61.026 14.0781 60.8281C13.5938 60.625 13.1719 60.3333 12.8125 59.9531C12.4583 59.5677 12.1849 59.1042 11.9922 58.5625C11.7995 58.0156 11.7031 57.3984 11.7031 56.7109V56.1953C11.7031 55.5078 11.7995 54.8932 11.9922 54.3516C12.1849 53.8047 12.4557 53.3385 12.8047 52.9531C13.1589 52.5677 13.5781 52.276 14.0625 52.0781C14.5521 51.875 15.0911 51.7734 15.6797 51.7734C16.2839 51.7734 16.8307 51.875 17.3203 52.0781C17.8099 52.276 18.2292 52.5677 18.5781 52.9531C18.9271 53.3385 19.1953 53.8047 19.3828 54.3516C19.5755 54.8932 19.6719 55.5078 19.6719 56.1953ZM18.2344 56.7109V56.1797C18.2344 55.6641 18.1771 55.2083 18.0625 54.8125C17.9479 54.4167 17.7812 54.0833 17.5625 53.8125C17.3438 53.5417 17.0755 53.3359 16.7578 53.1953C16.4401 53.0547 16.0807 52.9844 15.6797 52.9844C15.2891 52.9844 14.9375 53.0547 14.625 53.1953C14.3125 53.3359 14.0443 53.5417 13.8203 53.8125C13.6016 54.0833 13.4323 54.4167 13.3125 54.8125C13.1979 55.2083 13.1406 55.6641 13.1406 56.1797V56.7109C13.1406 57.2266 13.2005 57.6849 13.3203 58.0859C13.4401 58.4818 13.612 58.8177 13.8359 59.0938C14.0599 59.3646 14.3281 59.5703 14.6406 59.7109C14.9531 59.8516 15.3047 59.9219 15.6953 59.9219C16.0964 59.9219 16.4531 59.8516 16.7656 59.7109C17.0833 59.5703 17.3516 59.3646 17.5703 59.0938C17.7891 58.8177 17.9531 58.4818 18.0625 58.0859C18.1771 57.6849 18.2344 57.2266 18.2344 56.7109ZM27.1016 51.8984H28.5547V57.9922C28.5547 58.6797 28.3906 59.2578 28.0625 59.7266C27.7396 60.1901 27.3047 60.5391 26.7578 60.7734C26.2161 61.0078 25.6172 61.125 24.9609 61.125C24.2786 61.125 23.6667 61.0078 23.125 60.7734C22.5885 60.5391 22.1641 60.1901 21.8516 59.7266C21.5391 59.2578 21.3828 58.6797 21.3828 57.9922V51.8984H22.8125V57.9922C22.8125 58.4401 22.901 58.8099 23.0781 59.1016C23.2604 59.388 23.513 59.6016 23.8359 59.7422C24.1589 59.8776 24.5339 59.9453 24.9609 59.9453C25.3932 59.9453 25.7682 59.8776 26.0859 59.7422C26.4089 59.6016 26.6589 59.388 26.8359 59.1016C27.013 58.8099 27.1016 58.4401 27.1016 57.9922V51.8984ZM32.0859 51.8984V61H30.6406V51.8984H32.0859ZM40.2109 58.0547H41.6641C41.6016 58.6432 41.4219 59.1693 41.125 59.6328C40.8333 60.0964 40.4193 60.4609 39.8828 60.7266C39.3516 60.9922 38.6927 61.125 37.9062 61.125C37.3177 61.125 36.7865 61.026 36.3125 60.8281C35.8385 60.625 35.4323 60.3385 35.0938 59.9688C34.7552 59.5938 34.4948 59.1432 34.3125 58.6172C34.1302 58.0911 34.0391 57.5026 34.0391 56.8516V56.0547C34.0391 55.4036 34.1302 54.8151 34.3125 54.2891C34.4948 53.763 34.7578 53.3125 35.1016 52.9375C35.4453 52.5625 35.8594 52.276 36.3438 52.0781C36.8333 51.875 37.3802 51.7734 37.9844 51.7734C38.7448 51.7734 39.3854 51.9062 39.9062 52.1719C40.4271 52.4323 40.8333 52.7969 41.125 53.2656C41.4219 53.7344 41.6016 54.2734 41.6641 54.8828H40.2109C40.1589 54.4818 40.0521 54.138 39.8906 53.8516C39.7292 53.5651 39.4948 53.3464 39.1875 53.1953C38.8802 53.0391 38.4792 52.9609 37.9844 52.9609C37.5729 52.9609 37.2109 53.0312 36.8984 53.1719C36.5859 53.3073 36.3229 53.5104 36.1094 53.7812C35.901 54.0469 35.7422 54.3698 35.6328 54.75C35.5286 55.1302 35.4766 55.5625 35.4766 56.0469V56.8516C35.4766 57.3099 35.5234 57.7292 35.6172 58.1094C35.7161 58.4844 35.8646 58.8099 36.0625 59.0859C36.2604 59.362 36.513 59.5755 36.8203 59.7266C37.1276 59.8724 37.4896 59.9453 37.9062 59.9453C38.4271 59.9453 38.8438 59.8724 39.1562 59.7266C39.4688 59.5807 39.7057 59.3672 39.8672 59.0859C40.0339 58.7995 40.1484 58.4557 40.2109 58.0547ZM44.7812 51.8984V61H43.3359V51.8984H44.7812ZM50.6719 51.8984L46.6484 56.25L44.3984 58.4219L44.1172 56.9531L45.7969 55.1094L48.8906 51.8984H50.6719ZM49.1719 61L45.7109 56.6562L46.6719 55.625L50.9297 61H49.1719ZM57.4219 51.8984V61H55.9766V51.8984H57.4219ZM61.4844 55.9062V57.0938H57.0781V55.9062H61.4844ZM62.1016 51.8984V53.0938H57.0781V51.8984H62.1016ZM71.1953 56.1953V56.7109C71.1953 57.3984 71.1016 58.0156 70.9141 58.5625C70.7266 59.1042 70.4583 59.5677 70.1094 59.9531C69.7604 60.3333 69.3411 60.625 68.8516 60.8281C68.3672 61.026 67.8255 61.125 67.2266 61.125C66.638 61.125 66.099 61.026 65.6094 60.8281C65.125 60.625 64.7031 60.3333 64.3438 59.9531C63.9896 59.5677 63.7161 59.1042 63.5234 58.5625C63.3307 58.0156 63.2344 57.3984 63.2344 56.7109V56.1953C63.2344 55.5078 63.3307 54.8932 63.5234 54.3516C63.7161 53.8047 63.987 53.3385 64.3359 52.9531C64.6901 52.5677 65.1094 52.276 65.5938 52.0781C66.0833 51.875 66.6224 51.7734 67.2109 51.7734C67.8151 51.7734 68.3594 51.875 68.8438 52.0781C69.3333 52.276 69.7526 52.5677 70.1016 52.9531C70.4557 53.3385 70.7266 53.8047 70.9141 54.3516C71.1016 54.8932 71.1953 55.5078 71.1953 56.1953ZM69.7656 56.7109V56.1797C69.7656 55.6641 69.7083 55.2083 69.5938 54.8125C69.4792 54.4167 69.3125 54.0833 69.0938 53.8125C68.875 53.5417 68.6068 53.3359 68.2891 53.1953C67.9714 53.0547 67.612 52.9844 67.2109 52.9844C66.8255 52.9844 66.4766 53.0547 66.1641 53.1953C65.8516 53.3359 65.5833 53.5417 65.3594 53.8125C65.1406 54.0833 64.9714 54.4167 64.8516 54.8125C64.7318 55.2083 64.6719 55.6641 64.6719 56.1797V56.7109C64.6719 57.2266 64.7318 57.6849 64.8516 58.0859C64.9714 58.4818 65.1432 58.8177 65.3672 59.0938C65.5911 59.3646 65.8594 59.5703 66.1719 59.7109C66.4896 59.8516 66.8411 59.9219 67.2266 59.9219C67.6328 59.9219 67.9922 59.8516 68.3047 59.7109C68.6172 59.5703 68.8828 59.3646 69.1016 59.0938C69.3203 58.8177 69.4844 58.4818 69.5938 58.0859C69.7083 57.6849 69.7656 57.2266 69.7656 56.7109ZM80.6641 56.1953V56.7109C80.6641 57.3984 80.5703 58.0156 80.3828 58.5625C80.1953 59.1042 79.9271 59.5677 79.5781 59.9531C79.2292 60.3333 78.8099 60.625 78.3203 60.8281C77.8359 61.026 77.2943 61.125 76.6953 61.125C76.1068 61.125 75.5677 61.026 75.0781 60.8281C74.5938 60.625 74.1719 60.3333 73.8125 59.9531C73.4583 59.5677 73.1849 59.1042 72.9922 58.5625C72.7995 58.0156 72.7031 57.3984 72.7031 56.7109V56.1953C72.7031 55.5078 72.7995 54.8932 72.9922 54.3516C73.1849 53.8047 73.4557 53.3385 73.8047 52.9531C74.1589 52.5677 74.5781 52.276 75.0625 52.0781C75.5521 51.875 76.0911 51.7734 76.6797 51.7734C77.2839 51.7734 77.8281 51.875 78.3125 52.0781C78.8021 52.276 79.2214 52.5677 79.5703 52.9531C79.9245 53.3385 80.1953 53.8047 80.3828 54.3516C80.5703 54.8932 80.6641 55.5078 80.6641 56.1953ZM79.2344 56.7109V56.1797C79.2344 55.6641 79.1771 55.2083 79.0625 54.8125C78.9479 54.4167 78.7812 54.0833 78.5625 53.8125C78.3438 53.5417 78.0755 53.3359 77.7578 53.1953C77.4401 53.0547 77.0807 52.9844 76.6797 52.9844C76.2943 52.9844 75.9453 53.0547 75.6328 53.1953C75.3203 53.3359 75.0521 53.5417 74.8281 53.8125C74.6094 54.0833 74.4401 54.4167 74.3203 54.8125C74.2005 55.2083 74.1406 55.6641 74.1406 56.1797V56.7109C74.1406 57.2266 74.2005 57.6849 74.3203 58.0859C74.4401 58.4818 74.612 58.8177 74.8359 59.0938C75.0599 59.3646 75.3281 59.5703 75.6406 59.7109C75.9583 59.8516 76.3099 59.9219 76.6953 59.9219C77.1016 59.9219 77.4609 59.8516 77.7734 59.7109C78.0859 59.5703 78.3516 59.3646 78.5703 59.0938C78.7891 58.8177 78.9531 58.4818 79.0625 58.0859C79.1771 57.6849 79.2344 57.2266 79.2344 56.7109ZM85.2266 61H83.1641L83.1719 59.8125H85.2266C85.8984 59.8125 86.4557 59.6875 86.8984 59.4375C87.3464 59.1875 87.6797 58.8307 87.8984 58.3672C88.1172 57.8984 88.2266 57.3438 88.2266 56.7031V56.1875C88.2266 55.6927 88.1641 55.2526 88.0391 54.8672C87.9141 54.4818 87.7292 54.1589 87.4844 53.8984C87.2396 53.6328 86.9349 53.4323 86.5703 53.2969C86.2109 53.1615 85.7943 53.0938 85.3203 53.0938H83.1172V51.8984H85.3203C85.9661 51.8984 86.5547 52 87.0859 52.2031C87.6224 52.401 88.0833 52.6901 88.4688 53.0703C88.8542 53.4453 89.151 53.8984 89.3594 54.4297C89.5677 54.9557 89.6719 55.5469 89.6719 56.2031V56.7031C89.6719 57.5729 89.487 58.3307 89.1172 58.9766C88.7526 59.6224 88.237 60.1224 87.5703 60.4766C86.9089 60.8255 86.1276 61 85.2266 61ZM83.9531 51.8984V61H82.5078V51.8984H83.9531ZM97.0234 51.8984V61H95.5781V51.8984H97.0234ZM102.023 61H99.9609L99.9688 59.8125H102.023C102.695 59.8125 103.253 59.6875 103.695 59.4375C104.143 59.1875 104.477 58.8307 104.695 58.3672C104.914 57.8984 105.023 57.3438 105.023 56.7031V56.1875C105.023 55.6927 104.961 55.2526 104.836 54.8672C104.711 54.4818 104.526 54.1589 104.281 53.8984C104.036 53.6328 103.732 53.4323 103.367 53.2969C103.008 53.1615 102.591 53.0938 102.117 53.0938H99.9141V51.8984H102.117C102.763 51.8984 103.352 52 103.883 52.2031C104.419 52.401 104.88 52.6901 105.266 53.0703C105.651 53.4453 105.948 53.8984 106.156 54.4297C106.365 54.9557 106.469 55.5469 106.469 56.2031V56.7031C106.469 57.5729 106.284 58.3307 105.914 58.9766C105.549 59.6224 105.034 60.1224 104.367 60.4766C103.706 60.8255 102.924 61 102.023 61ZM100.75 51.8984V61H99.3047V51.8984H100.75ZM114.586 59.8125V61H109.398V59.8125H114.586ZM109.75 51.8984V61H108.305V51.8984H109.75ZM113.906 55.7031V56.8828H109.398V55.7031H113.906ZM114.539 51.8984V53.0938H109.398V51.8984H114.539ZM119.75 53.1719L116.648 61H115.172L118.914 51.8984H119.859L119.75 53.1719ZM122.43 61L119.352 53.1406L119.25 51.8984H120.203L123.898 61H122.43ZM122.219 57.6328V58.8203H116.812V57.6328H122.219ZM130.336 58.6719C130.336 58.4792 130.302 58.3073 130.234 58.1562C130.172 58 130.062 57.8594 129.906 57.7344C129.75 57.6042 129.534 57.4844 129.258 57.375C128.982 57.2656 128.633 57.1615 128.211 57.0625C127.706 56.9375 127.25 56.7943 126.844 56.6328C126.438 56.4661 126.089 56.2734 125.797 56.0547C125.51 55.8307 125.289 55.5729 125.133 55.2812C124.982 54.9896 124.906 54.6536 124.906 54.2734C124.906 53.9089 124.987 53.5755 125.148 53.2734C125.31 52.9661 125.539 52.7005 125.836 52.4766C126.133 52.2526 126.49 52.0807 126.906 51.9609C127.323 51.8359 127.786 51.7734 128.297 51.7734C129.026 51.7734 129.648 51.901 130.164 52.1562C130.685 52.4062 131.083 52.7422 131.359 53.1641C131.635 53.5807 131.773 54.0417 131.773 54.5469H130.32C130.32 54.2396 130.245 53.9661 130.094 53.7266C129.948 53.487 129.724 53.2995 129.422 53.1641C129.125 53.0234 128.745 52.9531 128.281 52.9531C127.849 52.9531 127.49 53.0104 127.203 53.125C126.917 53.2396 126.703 53.3958 126.562 53.5938C126.422 53.7917 126.352 54.0156 126.352 54.2656C126.352 54.4427 126.393 54.6042 126.477 54.75C126.56 54.8958 126.693 55.0286 126.875 55.1484C127.057 55.2682 127.294 55.3828 127.586 55.4922C127.878 55.6016 128.232 55.7083 128.648 55.8125C129.154 55.9375 129.602 56.0859 129.992 56.2578C130.383 56.4297 130.711 56.6302 130.977 56.8594C131.247 57.0885 131.451 57.3516 131.586 57.6484C131.727 57.9453 131.797 58.2812 131.797 58.6562C131.797 59.0365 131.714 59.3802 131.547 59.6875C131.385 59.9896 131.151 60.2474 130.844 60.4609C130.542 60.6745 130.177 60.8385 129.75 60.9531C129.328 61.0677 128.859 61.125 128.344 61.125C127.885 61.125 127.432 61.0677 126.984 60.9531C126.542 60.8333 126.138 60.6562 125.773 60.4219C125.414 60.1823 125.128 59.8854 124.914 59.5312C124.701 59.1719 124.594 58.7526 124.594 58.2734H126.047C126.047 58.5755 126.107 58.8333 126.227 59.0469C126.346 59.2604 126.513 59.4349 126.727 59.5703C126.94 59.7005 127.185 59.7969 127.461 59.8594C127.737 59.9219 128.031 59.9531 128.344 59.9531C128.776 59.9531 129.141 59.901 129.438 59.7969C129.734 59.6875 129.958 59.5365 130.109 59.3438C130.26 59.151 130.336 58.9271 130.336 58.6719Z" fill="#355070"/>
</svg>
