<svg width="18" height="19" viewBox="0 0 18 19" fill="none" xmlns="http://www.w3.org/2000/svg">
<g clip-path="url(#clip0_96_28)">
<path d="M18 6.5C18 4.025 15.975 2 13.5 2C13.125 2 12.825 2.075 12.45 2.15C11.625 1.1 10.425 0.5 9 0.5C7.575 0.5 6.375 1.1 5.55 2.15C5.175 2.075 4.875 2 4.5 2C2.025 2 0 4.025 0 6.5C0 8.45 1.275 10.1 3 10.775V17.75C3 18.2 3.3 18.5 3.75 18.5H14.25C14.7 18.5 15 18.2 15 17.75V10.775C16.725 10.1 18 8.45 18 6.5ZM13.5 17H4.5V15.5H13.5V17ZM13.5 9.5V14.75H4.5V9.5C2.85 9.5 1.5 8.15 1.5 6.5C1.5 4.85 2.85 3.5 4.5 3.5C4.575 3.5 4.65 3.5 4.725 3.5C5.25 3.575 5.775 3.725 6.15 4.025C6.375 3.5 6.6 3.125 7.05 2.75C7.575 2.3 8.25 2 9 2C9.75 2 10.425 2.3 10.95 2.75C11.325 3.05 11.625 3.5 11.775 4.025C12.225 3.725 12.75 3.575 13.275 3.5C13.35 3.5 13.425 3.5 13.5 3.5C15.15 3.5 16.5 4.85 16.5 6.5C16.5 8.15 15.15 9.5 13.5 9.5Z" fill="white"/>
</g>
<defs>
<clipPath id="clip0_96_28">
<rect width="18" height="18" fill="white" transform="translate(0 0.5)"/>
</clipPath>
</defs>
</svg>
